<svg xmlns="http://www.w3.org/2000/svg" width="600" height="230" viewBox="0 0 600 230" role="img" aria-label="SEO Planet: An affordable, SEMrush-style SEO platform for agencies and small teams.">
<title>SEO Planet</title>
<rect x="1" y="1" width="598" height="228" rx="16" fill="#0F172A" stroke="#1E293B" stroke-width="2"/>
<rect x="28" y="28" width="56" height="56" rx="14" fill="#22C55E" fill-opacity="0.12"/>
<g transform="translate(40 40)" fill="none" stroke="#22C55E" stroke-width="2" stroke-linecap="round" stroke-linejoin="round"><polyline points="22 7 13.5 15.5 8.5 10.5 2 17"/><polyline points="16 7 22 7 22 13"/></g>
<text x="104" y="54" font-family="'Space Grotesk','Segoe UI',system-ui,-apple-system,Helvetica,Arial,sans-serif" font-size="25" font-weight="700" fill="#F8FAFC">SEO Planet</text>
<text x="104" y="78" font-family="ui-monospace,SFMono-Regular,Menlo,Consolas,'Liberation Mono',monospace" font-size="13.5" fill="#22C55E">github.com/maxpaldigi/seo-planet</text>
<text font-family="'Space Grotesk','Segoe UI',system-ui,-apple-system,Helvetica,Arial,sans-serif" font-size="16.5" fill="#94A3B8"><tspan x="28" y="122">An affordable, SEMrush-style SEO platform</tspan><tspan x="28" y="146">for agencies and small teams.</tspan></text>
<rect x="28" y="176" width="69" height="26" rx="13" fill="#1E293B"/><text x="63" y="193.5" text-anchor="middle" font-family="ui-monospace,SFMono-Regular,Menlo,Consolas,'Liberation Mono',monospace" font-size="12.5" fill="#94A3B8">Laravel</text><rect x="105.19999999999999" y="176" width="54" height="26" rx="13" fill="#1E293B"/><text x="132" y="193.5" text-anchor="middle" font-family="ui-monospace,SFMono-Regular,Menlo,Consolas,'Liberation Mono',monospace" font-size="12.5" fill="#94A3B8">React</text><rect x="167.2" y="176" width="100" height="26" rx="13" fill="#1E293B"/><text x="217" y="193.5" text-anchor="middle" font-family="ui-monospace,SFMono-Regular,Menlo,Consolas,'Liberation Mono',monospace" font-size="12.5" fill="#94A3B8">Open source</text>
<g transform="translate(552 32)" fill="none" stroke="#94A3B8" stroke-width="2" stroke-linecap="round" stroke-linejoin="round"><path d="M7 17 17 7"/><path d="M7 7h10v10"/></g>
</svg>
